<svg xmlns="http://www.w3.org/2000/svg" xmlns:xlink="http://www.w3.org/1999/xlink" viewBox="0 0 88 72.15"><defs><style>.cls-1,.cls-10,.cls-11,.cls-3,.cls-8{fill:none;}.cls-2{fill:#ffebee;}.cls-10,.cls-11,.cls-3,.cls-5,.cls-6,.cls-8{stroke:#e0003b;}.cls-10,.cls-3,.cls-5,.cls-6{stroke-linecap:round;}.cls-11,.cls-3,.cls-5,.cls-6{stroke-linejoin:round;}.cls-4,.cls-6{fill:#fff;}.cls-5,.cls-7{fill:#ffcdd2;}.cls-10,.cls-8{stroke-miterlimit:10;}.cls-9{clip-path:url(#clip-path);}</style><clipPath id="clip-path"><circle class="cls-1" cx="44" cy="40" r="40"/></clipPath></defs><title>Asset 1</title><g id="Layer_2" data-name="Layer 2"><g id="Duotone"><g id="Icons"><g id="Background"><g id="New_Symbol_56" data-name="New Symbol 56"><path class="cls-2" d="M84,40A40,40,0,1,0,7.56,56.5H80.44A39.85,39.85,0,0,0,84,40Z"/><line class="cls-3" x1="5" y1="56.5" x2="83" y2="56.5"/><line class="cls-3" x1="0.5" y1="56.5" x2="3" y2="56.5"/><line class="cls-3" x1="85" y1="56.5" x2="87.5" y2="56.5"/></g></g><g id="Scene"><path class="cls-4" d="M60.11,33.23A15.75,15.75,0,0,0,44.5,49h6v7.5H70V49h4.68a1,1,0,0,0,1-1A15.75,15.75,0,0,0,60.11,33.23Z"/><path class="cls-3" d="M60.11,33.23A15.75,15.75,0,0,0,44.5,49h6v7.5H70V49h4.68a1,1,0,0,0,1-1A15.75,15.75,0,0,0,60.11,33.23Z"/><path class="cls-5" d="M65,46.5A1.85,1.85,0,0,0,64,45a1.63,1.63,0,0,0,0-3l-4-2-4,2a1.62,1.62,0,0,0,0,3,1.62,1.62,0,0,0,0,3,1.62,1.62,0,0,0,0,3,1.62,1.62,0,0,0,0,3,1.85,1.85,0,0,0-1,1.5,1,1,0,0,0,1,1h8a1,1,0,0,0,1-1A1.85,1.85,0,0,0,64,54a1.63,1.63,0,0,0,0-3,1.63,1.63,0,0,0,0-3A1.85,1.85,0,0,0,65,46.5Z"/><rect class="cls-5" x="58.5" y="40" width="3" height="16.5"/><line class="cls-3" x1="70" y1="49" x2="70" y2="47"/><path class="cls-5" d="M60,34v6l-4,2-.81.4a1,1,0,0,1-1.44-.74l-.61-4A4.51,4.51,0,0,1,55.27,33a2.08,2.08,0,0,1,.52-.23c.58-.14,1.18,1,1.79.9Z"/><path class="cls-5" d="M66.84,37.64l-.61,4a1,1,0,0,1-1.44.74L64,42l-4-2V34l2.42-.3c.61.07,1.21-1,1.79-.9a2.42,2.42,0,0,1,.56.25A4.53,4.53,0,0,1,66.84,37.64Z"/><line class="cls-3" x1="50.5" y1="49" x2="50.5" y2="47"/><rect class="cls-6" x="45.5" y="49" width="5" height="7.5"/><rect class="cls-6" x="70" y="49" width="5" height="7.5"/><ellipse class="cls-2" cx="44.23" cy="70.65" rx="15.23" ry="1.5"/><polygon class="cls-4" points="63.62 35.63 60.01 39.4 56.41 35.63 56.41 31 63.62 31 63.62 35.63"/><polygon class="cls-3" points="63.62 35.63 60.01 39.4 56.41 35.63 56.41 31 63.62 31 63.62 35.63"/><path class="cls-6" d="M70.2,20V17.5a10,10,0,0,0-20,0V20a2,2,0,0,0,0,4h.12a10,10,0,0,0,19.76,0h.12a2,2,0,0,0,0-4Z"/><path class="cls-7" d="M67.34,24a1.2,1.2,0,1,1-1.2-1.2A1.21,1.21,0,0,1,67.34,24Z"/><path class="cls-7" d="M55.31,24a1.21,1.21,0,1,1-1.2-1.2A1.21,1.21,0,0,1,55.31,24Z"/><path class="cls-3" d="M65.54,20.81a1.63,1.63,0,0,0-3,0"/><path class="cls-3" d="M57.72,20.81a1.63,1.63,0,0,0-3,0"/><path class="cls-3" d="M57.11,26.4a4.38,4.38,0,0,0,6,0"/><path class="cls-4" d="M61.77,3a13.12,13.12,0,0,0-7.42,2.29,8,8,0,0,0-7.31,8V31a4.73,4.73,0,0,0,4.4,4.72,4.47,4.47,0,0,0,2.85-1,.59.59,0,0,0-.36-1h0a2,2,0,0,1-1.89-2V16.93a2,2,0,0,1,1-1.74A11.16,11.16,0,0,0,57.5,11a15.05,15.05,0,0,0,8.83,5.53,2,2,0,0,1,1.67,2V31.73a2,2,0,0,1-1.89,2h0a.59.59,0,0,0-.36,1,4.47,4.47,0,0,0,2.85,1A4.73,4.73,0,0,0,73,31V13.25C73,7.59,67.43,3,61.77,3Z"/><path class="cls-8" d="M61.77,3a13.12,13.12,0,0,0-7.42,2.29,8,8,0,0,0-7.31,8V31a4.73,4.73,0,0,0,4.4,4.72,4.47,4.47,0,0,0,2.85-1,.59.59,0,0,0-.36-1h0a2,2,0,0,1-1.89-2V16.93a2,2,0,0,1,1-1.74A11.16,11.16,0,0,0,57.5,11a15.05,15.05,0,0,0,8.83,5.53,2,2,0,0,1,1.67,2V31.73a2,2,0,0,1-1.89,2h0a.59.59,0,0,0-.36,1,4.47,4.47,0,0,0,2.85,1A4.73,4.73,0,0,0,73,31V13.25C73,7.59,67.43,3,61.77,3Z"/><path class="cls-4" d="M56.5,68A1.5,1.5,0,0,1,55,69.5H35L31,68l4-1.5H55A1.5,1.5,0,0,1,56.5,68Z"/><path class="cls-3" d="M56.5,68A1.5,1.5,0,0,1,55,69.5H35L31,68l4-1.5H55A1.5,1.5,0,0,1,56.5,68Z"/><rect class="cls-7" x="35" y="66.5" width="16.5" height="3"/><rect class="cls-3" x="35" y="66.5" width="16.5" height="3"/><rect class="cls-4" x="51.5" y="66.5" width="2" height="3"/><rect class="cls-3" x="51.5" y="66.5" width="2" height="3"/><path class="cls-7" d="M56.5,68A1.5,1.5,0,0,1,55,69.5H53.5v-3H55A1.5,1.5,0,0,1,56.5,68Z"/><path class="cls-3" d="M56.5,68A1.5,1.5,0,0,1,55,69.5H53.5v-3H55A1.5,1.5,0,0,1,56.5,68Z"/><line class="cls-3" x1="30" y1="68" x2="32" y2="68"/><g class="cls-9"><path class="cls-6" d="M29.53,51.13,25.15,47a3.92,3.92,0,0,0-1-.65l-5.07-2c-.62-.61-.67.31-1.28.93s-2.28,3.27-1.66,3.87l5.5,5.21h0l.07,1.39a1.57,1.57,0,0,0,3.14-.12,1.54,1.54,0,0,0,1.06.1A1.57,1.57,0,0,0,27,53.78l-.25-1,.6.57a1.57,1.57,0,0,0,2.19-2.25Z"/><path class="cls-8" d="M23.45,52.63l.5,1.93a1.57,1.57,0,1,0,3-.78"/><line class="cls-8" x1="24.15" y1="50.36" x2="27.34" y2="53.38"/><line class="cls-3" x1="20.99" y1="48.11" x2="19.67" y2="47.55"/><path class="cls-4" d="M18,65.83,9.81,64.15h0c-.24-10.25.25-21.2,14.09-26.48l.78-.31a1.57,1.57,0,0,1,1.13,2.94l-.79.3c-3.48,1.34-6,3.06-7.08,6.61-1.72,5.35,1.5,3.77,2.46,1.93l2.2-3.86a1.57,1.57,0,0,1,2.75,1.52c-2.82,7.85-2.45,9.47-4.73,11.94C18.93,60.57,18.73,62.11,18,65.83Z"/><path class="cls-3" d="M18,65.83,9.81,64.15h0c-.24-10.25.25-21.2,14.09-26.48l.78-.31a1.57,1.57,0,0,1,1.13,2.94l-.79.3c-3.48,1.34-6,3.06-7.08,6.61-1.72,5.35,1.5,3.77,2.46,1.93l2.2-3.86a1.57,1.57,0,0,1,2.75,1.52c-2.82,7.85-2.45,9.47-4.73,11.94C18.93,60.57,18.73,62.11,18,65.83Z"/><rect class="cls-5" x="21.92" y="29.72" width="24" height="31" rx="2" ry="2" transform="translate(-2.78 2.22) rotate(-3.61)"/><path class="cls-6" d="M25.42,32.22h17a1,1,0,0,1,1,1v22a3,3,0,0,1-3,3h-16a0,0,0,0,1,0,0v-25a1,1,0,0,1,1-1Z" transform="translate(-2.78 2.22) rotate(-3.61)"/><path class="cls-7" d="M34.88,28.62a2,2,0,1,0-4,.26l-2,.12A2,2,0,0,0,27,31.12l.06,1a1,1,0,0,0,1.06.94l10-.63a1,1,0,0,0,.94-1.06l-.06-1a2,2,0,0,0-2.13-1.87Z"/><path class="cls-3" d="M34.88,28.62a2,2,0,1,0-4,.26l-2,.12A2,2,0,0,0,27,31.12l.06,1a1,1,0,0,0,1.06.94l10-.63a1,1,0,0,0,.94-1.06l-.06-1a2,2,0,0,0-2.13-1.87Z"/><line class="cls-10" x1="27.12" y1="48.65" x2="40.6" y2="47.8"/><line class="cls-10" x1="26.43" y1="37.67" x2="30.92" y2="37.39"/><line class="cls-10" x1="26.59" y1="40.17" x2="31.08" y2="39.89"/><line class="cls-10" x1="26.75" y1="42.66" x2="31.24" y2="42.38"/><line class="cls-10" x1="27.28" y1="51.15" x2="40.75" y2="50.3"/><rect class="cls-6" x="33.07" y="35.01" width="8" height="9" rx="1" ry="1" transform="translate(-2.41 2.41) rotate(-3.61)"/><path class="cls-7" d="M35.73,38.91a1.3,1.3,0,0,0,2.59-.16l0-.61a1.3,1.3,0,0,0-2.59.17Z"/><path class="cls-7" d="M34.29,43.69v-.16a3,3,0,0,1,6.06-.38v.16Z"/><path class="cls-6" d="M25.26,58.79A3,3,0,0,1,22.07,56L37.17,55a1,1,0,0,1,1,.74,3,3,0,0,0,3,2Z"/><path class="cls-6" d="M17.82,50.74c.65.48,2-.52,2.59-1.61l2.2-3.86a1.57,1.57,0,0,1,2.75,1.52c-2.82,7.85-2.45,9.47-4.73,11.94-1.7,1.84-1.9,3.38-2.67,7.1L14,65"/><rect class="cls-7" x="10.46" y="61.56" width="5.5" height="12.17" rx="1" ry="1" transform="translate(-55.72 66.96) rotate(-78.39)"/><rect class="cls-11" x="10.46" y="61.56" width="5.5" height="12.17" rx="1" ry="1" transform="translate(-55.72 66.96) rotate(-78.39)"/><path class="cls-6" d="M13.82,58.51h1.36a0,0,0,0,1,0,0V69.1a0,0,0,0,1,0,0H13.82a1,1,0,0,1-1-1v-8.6A1,1,0,0,1,13.82,58.51Z" transform="translate(79.31 62.94) rotate(101.62)"/></g></g></g></g></g></svg>