<svg xmlns="http://www.w3.org/2000/svg" viewBox="0 0 88 73.17"><defs><style>.cls-1{fill:#ffebee;}.cls-2{fill:none;}.cls-2,.cls-4,.cls-5{stroke:#e0003b;stroke-linecap:round;stroke-linejoin:round;}.cls-3,.cls-5{fill:#fff;}.cls-4,.cls-6{fill:#ffcdd2;}</style></defs><title>Asset 2</title><g id="Layer_2" data-name="Layer 2"><g id="Duotone"><g id="Icons"><g id="Background"><g id="New_Symbol_68" data-name="New Symbol 68"><path class="cls-1" d="M84.5,40A40,40,0,1,0,8.06,56.5H80.94A39.85,39.85,0,0,0,84.5,40Z"/><line class="cls-2" x1="5" y1="56.5" x2="83" y2="56.5"/><line class="cls-2" x1="0.5" y1="56.5" x2="3" y2="56.5"/><line class="cls-2" x1="85" y1="56.5" x2="87.5" y2="56.5"/></g></g><g id="Scene"><ellipse class="cls-1" cx="22.28" cy="61.51" rx="17.25" ry="1.5"/><path class="cls-3" d="M26.89,49.83l2.49.24L30,43.54c.12-1.28.21-2.57.26-3.86l.23-5.82a.81.81,0,0,0-.72-.83h0a.81.81,0,0,0-.87.67L28,39.46c-.2,1.27-.37,2.55-.49,3.84Z"/><path class="cls-2" d="M26.89,49.83l2.49.24L30,43.54c.12-1.28.21-2.57.26-3.86l.23-5.82a.81.81,0,0,0-.72-.83h0a.81.81,0,0,0-.87.67L28,39.46c-.2,1.27-.37,2.55-.49,3.84Z"/><polygon class="cls-4" points="27.05 53.36 28.54 53.51 29.38 50.08 26.89 49.83 27.05 53.36"/><path class="cls-5" d="M26.53,54.06V53H29v1.1a2.49,2.49,0,0,1,2,2.45h-6.5A2.5,2.5,0,0,1,26.53,54.06Z"/><path class="cls-6" d="M32.12,56.51H21V50a6.5,6.5,0,0,0-6.5-6.5h0A6.5,6.5,0,0,0,8,50v9a2,2,0,0,0,2,2H35a2,2,0,0,0,2-2,.79.79,0,0,0-.44-.69l-2.74-1.37A3.86,3.86,0,0,0,32.12,56.51Z"/><path class="cls-2" d="M32.12,56.51H21V50a6.5,6.5,0,0,0-6.5-6.5h0A6.5,6.5,0,0,0,8,50v9a2,2,0,0,0,2,2H35a2,2,0,0,0,2-2,.79.79,0,0,0-.44-.69l-2.74-1.37A3.86,3.86,0,0,0,32.12,56.51Z"/><circle class="cls-5" cx="14.53" cy="50.51" r="4.5"/><polyline class="cls-2" points="14.53 48.51 14.53 51.01 15.53 52.01"/><path class="cls-5" d="M76.9,56.5h-36l1.41-30.09a2,2,0,0,1,2-1.91H73.49a2,2,0,0,1,2,1.91Z"/><path class="cls-3" d="M62.26,37H55.53A12,12,0,0,1,44,28.19l-.52-1.89a3,3,0,0,1,2.89-3.8H71.46a3,3,0,0,1,2.89,3.8l-.52,1.89A12,12,0,0,1,62.26,37Z"/><path class="cls-2" d="M62.26,37H55.53A12,12,0,0,1,44,28.19l-.52-1.89a3,3,0,0,1,2.89-3.8H71.46a3,3,0,0,1,2.89,3.8l-.52,1.89A12,12,0,0,1,62.26,37Z"/><path class="cls-6" d="M59.08,33.5A15.5,15.5,0,0,0,43.58,49v7.5h18.5V61h5.5a7,7,0,0,0,6.53-4.5,6.7,6.7,0,0,0,.47-2.5V49A15.5,15.5,0,0,0,59.08,33.5Z"/><line class="cls-2" x1="49.58" y1="47.5" x2="49.58" y2="56.5"/><path class="cls-2" d="M59.08,33.5A15.5,15.5,0,0,0,43.58,49v7.5h18.5V61h5.5a7,7,0,0,0,6.53-4.5,6.7,6.7,0,0,0,.47-2.5V49A15.5,15.5,0,0,0,59.08,33.5Z"/><polygon class="cls-5" points="62.33 36 58.83 41.5 55.33 36 55.33 30.5 62.33 30.5 62.33 36"/><polygon class="cls-2" points="62.33 36 58.83 41.5 55.33 36 55.33 30.5 62.33 30.5 62.33 36"/><path class="cls-5" d="M65.33,34.5h-1V34a1,1,0,0,0-1-1h-1v3l-3.5,5.5L55.33,36V33h-1a1,1,0,0,0-1,1v.5h-1a1,1,0,0,0-1,1v.43a2,2,0,0,0,.3,1.06l5.2,8.51h4L66,37a2,2,0,0,0,.31-1.06V35.5A1,1,0,0,0,65.33,34.5Z"/><path class="cls-5" d="M56.55,40.93l-4.09,2.42c-.06.33-.08.48-.14.8l1,1.2.79,1.84.87.16,3.6-3.71a1.42,1.42,0,0,0,.2-1.71l-.3-.51A1.42,1.42,0,0,0,56.55,40.93Z"/><path class="cls-5" d="M61.16,41l4,2.6.1.81-1.06,1.15-.88,1.8-.87.12L59,43.65a1.42,1.42,0,0,1-.13-1.72l.32-.49A1.42,1.42,0,0,1,61.16,41Z"/><path class="cls-5" d="M57.83,43.5s-2.5,3-2.5,9.5c0,0,3-.5,3.5,1v1.5s4-1,4-2.5c0,0-1-8-3-9.5Z"/><path class="cls-5" d="M60.74,43.35C60.49,42,59.83,42,59.83,42h-2c-.52,0-.77.68-.89,1.33a1,1,0,0,0,1,1.17h1.82A1,1,0,0,0,60.74,43.35Z"/><line class="cls-2" x1="58.83" y1="49" x2="58.83" y2="54"/><path class="cls-5" d="M54.58,61h7.5V56h-7.5a2.5,2.5,0,0,0-2.5,2.5h0A2.5,2.5,0,0,0,54.58,61Z"/><path class="cls-2" d="M62.08,61V56a1,1,0,0,1,1-1h4.5a1,1,0,0,0,1-1V47.85"/><path class="cls-5" d="M62.75,69a1,1,0,0,1-.11.93,1,1,0,0,1-.82.43H46.65a1,1,0,0,1-.78-.37,1,1,0,0,1-.19-.85l1.06-4.61a1,1,0,0,1,1-.77H60.05a1,1,0,0,1,.93.64Z"/><path class="cls-5" d="M72.73,71.1a1,1,0,0,1,.06,1,1,1,0,0,1-.88.54H53.1a1,1,0,0,1-1-1V66.1a1,1,0,0,1,1-1h15a1,1,0,0,1,.82.43Z"/><path class="cls-3" d="M74.4,20.58a3.69,3.69,0,0,0,.5-1.83A3.75,3.75,0,0,0,71.26,15,12.23,12.23,0,0,0,47,15.06a3.72,3.72,0,0,0-2.6,5.59A5.25,5.25,0,0,0,45.65,31a5.12,5.12,0,0,0,2-.4,4.23,4.23,0,0,0,8.19-2.07,12,12,0,0,0,6.64,0,4.24,4.24,0,0,0,8.33,1.62,5.24,5.24,0,1,0,3.6-9.57Zm-5.88,4a6.9,6.9,0,0,0-.09.78"/><path class="cls-2" d="M74.4,20.58a3.69,3.69,0,0,0,.5-1.83A3.75,3.75,0,0,0,71.26,15,12.23,12.23,0,0,0,47,15.06a3.72,3.72,0,0,0-2.6,5.59A5.25,5.25,0,0,0,45.65,31a5.12,5.12,0,0,0,2-.4,4.23,4.23,0,0,0,8.19-2.07,12,12,0,0,0,6.64,0,4.24,4.24,0,0,0,8.33,1.62,5.24,5.24,0,1,0,3.6-9.57Zm-5.88,4a6.9,6.9,0,0,0-.09.78"/><path class="cls-5" d="M70.9,22a2,2,0,0,1-2,2h-.12A10,10,0,0,1,49,24H48.9a2,2,0,0,1,0-4s2.5-3.56,5-3,4-.3,6-3.64A6.84,6.84,0,0,1,65.4,10a20,20,0,0,0,1,5.5A18.48,18.48,0,0,0,68.9,20,2,2,0,0,1,70.9,22Z"/><path class="cls-2" d="M64.4,21a1.63,1.63,0,0,0-3,0"/><path class="cls-2" d="M56.4,21a1.62,1.62,0,0,0-3,0"/><circle class="cls-6" cx="53.15" cy="24.25" r="1.25"/><circle class="cls-6" cx="64.65" cy="24.25" r="1.25"/><path class="cls-2" d="M56.52,27a3.63,3.63,0,0,0,5,0"/><circle class="cls-4" cx="48.65" cy="24.25" r="1.25"/><circle class="cls-4" cx="69.15" cy="24.25" r="1.25"/></g></g></g></g></svg>