<svg xmlns="http://www.w3.org/2000/svg" viewBox="0 0 210.87 208.22"><defs><style>.cls-1{fill:#fff;}.cls-2{fill:#fcd3c1;}</style></defs><title>logo2</title><g id="Layer_2" data-name="Layer 2"><g id="Layer_1-2" data-name="Layer 1"><path class="cls-1" d="M16.08,13.12a4.87,4.87,0,0,1,1.29.36,4.53,4.53,0,0,1,1.11.75,13.39,13.39,0,0,1,1.2,1.29l33.21,42c-.13-1.35-.23-2.65-.29-3.91s-.1-2.46-.1-3.58V13H66.8V83H58.36a7.85,7.85,0,0,1-3.17-.57,6.91,6.91,0,0,1-2.5-2.11l-33-41.66c.1,1.21.18,2.41.24,3.57s.1,2.27.1,3.29V83H5.76V13H14.3A14.8,14.8,0,0,1,16.08,13.12Z" transform="translate(-5.76 -13.03)"/><path class="cls-1" d="M105.15,47,83.5,13H99.73a5,5,0,0,1,2.32.41,3.6,3.6,0,0,1,1.32,1.36l13.92,23.57a9.36,9.36,0,0,1,.55-1.2c.21-.39.44-.78.7-1.2L130.73,15A3.66,3.66,0,0,1,134,13h15.55L127.61,46.29,150,83H133.8a4,4,0,0,1-2.57-.77,5.91,5.91,0,0,1-1.56-1.82l-14-24.47a10,10,0,0,1-.87,1.82L101.74,80.36a6.49,6.49,0,0,1-1.53,1.8,3.63,3.63,0,0,1-2.4.79H82.64Z" transform="translate(-5.76 -13.03)"/><path class="cls-1" d="M216.63,13V25.89H197V83H180.73V25.89H161.06V13Z" transform="translate(-5.76 -13.03)"/><path class="cls-2" d="M24.67,158H50.58v13H8.45V101H24.67Z" transform="translate(-5.76 -13.03)"/><path class="cls-2" d="M68.63,101H81.68a5.82,5.82,0,0,1,3.46,1,5.33,5.33,0,0,1,1.92,2.55L100.59,142c.61,1.63,1.22,3.41,1.85,5.33s1.21,3.93,1.75,6q.68-3.16,1.56-6T107.5,142l13.44-37.43a5.55,5.55,0,0,1,5.28-3.51h13.15l-28,69.93H96.65Z" transform="translate(-5.76 -13.03)"/><path class="cls-2" d="M187.07,158H213v13H170.85V101h16.22Z" transform="translate(-5.76 -13.03)"/><path class="cls-1" d="M16.05,210.15v10.78H9.3V191.79h9.47a19.53,19.53,0,0,1,5.39.65,10.25,10.25,0,0,1,3.64,1.81A6.86,6.86,0,0,1,29.85,197a9.6,9.6,0,0,1,.26,6.12A8,8,0,0,1,29,205.44a8.74,8.74,0,0,1-1.84,1.91,9.61,9.61,0,0,1-2.51,1.38,6.36,6.36,0,0,1,1.27.84,4.73,4.73,0,0,1,1,1.22l6.2,10.14H27a2.61,2.61,0,0,1-2.44-1.28l-4.84-8.46a2,2,0,0,0-.75-.8,2.49,2.49,0,0,0-1.21-.24Zm0-4.66h2.72a7,7,0,0,0,2.35-.35,4.19,4.19,0,0,0,1.59-1,3.55,3.55,0,0,0,.9-1.45,5.46,5.46,0,0,0,.28-1.79,3.73,3.73,0,0,0-1.25-3,5.81,5.81,0,0,0-3.87-1.08H16.05Z" transform="translate(-5.76 -13.03)"/><path class="cls-1" d="M58.33,191.79V197h-12v6.8h9.16v5H46.37v6.94h12v5.2H39.57V191.79Z" transform="translate(-5.76 -13.03)"/><path class="cls-1" d="M82.08,197.71a2.54,2.54,0,0,1-.63.72,1.4,1.4,0,0,1-.85.24,2,2,0,0,1-1-.29l-1.2-.65a10.05,10.05,0,0,0-1.53-.65,6.17,6.17,0,0,0-2-.29,4.23,4.23,0,0,0-2.83.81,2.76,2.76,0,0,0-.93,2.19,2,2,0,0,0,.56,1.46,4.94,4.94,0,0,0,1.47,1,15.47,15.47,0,0,0,2.08.77c.78.23,1.58.49,2.39.78a20.86,20.86,0,0,1,2.39,1,7.94,7.94,0,0,1,2.08,1.48,6.8,6.8,0,0,1,1.47,2.19,7.86,7.86,0,0,1,.56,3.11,10,10,0,0,1-.7,3.78,8.71,8.71,0,0,1-2,3.07,9.41,9.41,0,0,1-3.28,2.06,12.25,12.25,0,0,1-4.43.75A14.79,14.79,0,0,1,71,221a16.78,16.78,0,0,1-2.73-.79A15.3,15.3,0,0,1,65.75,219a10.49,10.49,0,0,1-2-1.56l2-3.16a1.62,1.62,0,0,1,.61-.58,1.76,1.76,0,0,1,.87-.22,2.34,2.34,0,0,1,1.21.38l1.37.84a11.21,11.21,0,0,0,1.77.84,6.75,6.75,0,0,0,2.36.38,4.49,4.49,0,0,0,2.86-.81,3.09,3.09,0,0,0,1-2.57,2.4,2.4,0,0,0-.56-1.66,4.22,4.22,0,0,0-1.47-1.06,12.73,12.73,0,0,0-2.07-.74c-.77-.21-1.56-.45-2.38-.71a17.94,17.94,0,0,1-2.38-1,7.42,7.42,0,0,1-2.06-1.5,6.88,6.88,0,0,1-1.47-2.32,9.09,9.09,0,0,1-.56-3.43,8.32,8.32,0,0,1,.65-3.2,8.41,8.41,0,0,1,2-2.78,9.57,9.57,0,0,1,3.13-2,11.74,11.74,0,0,1,4.26-.73,15.86,15.86,0,0,1,2.61.21,13.49,13.49,0,0,1,4.54,1.6,9.82,9.82,0,0,1,1.77,1.29Z" transform="translate(-5.76 -13.03)"/><path class="cls-1" d="M103.32,215.59a6.23,6.23,0,0,0,2.43-.45,5,5,0,0,0,1.81-1.29,5.72,5.72,0,0,0,1.13-2,9,9,0,0,0,.39-2.75V191.79h6.76v17.26A13.45,13.45,0,0,1,115,214a11.07,11.07,0,0,1-2.49,3.86,11.3,11.3,0,0,1-3.94,2.52,15.65,15.65,0,0,1-10.46,0,11.21,11.21,0,0,1-3.94-2.52A10.9,10.9,0,0,1,91.66,214a13.67,13.67,0,0,1-.86-4.92V191.79h6.76V209a9,9,0,0,0,.39,2.75,5.86,5.86,0,0,0,1.13,2.06,4.83,4.83,0,0,0,1.81,1.3A6.19,6.19,0,0,0,103.32,215.59Z" transform="translate(-5.76 -13.03)"/><path class="cls-1" d="M139.58,209.19c.25.55.48,1.11.71,1.68q.35-.88.72-1.71c.25-.56.51-1.09.78-1.61l7.48-14.74a2.42,2.42,0,0,1,.41-.59,1.42,1.42,0,0,1,.47-.31,1.78,1.78,0,0,1,.59-.1h5.93v29.12h-6V204.17q0-1.21.12-2.64l-7.72,15a2.5,2.5,0,0,1-1,1.06,2.69,2.69,0,0,1-1.39.36h-.92a2.69,2.69,0,0,1-1.39-.36,2.57,2.57,0,0,1-1-1.06l-7.76-15c.06.47.1.93.12,1.39s0,.88,0,1.27v16.76h-6V191.81h5.93a1.78,1.78,0,0,1,.59.1,1.33,1.33,0,0,1,.47.31,2.42,2.42,0,0,1,.41.59l7.5,14.8C139.08,208.11,139.33,208.64,139.58,209.19Z" transform="translate(-5.76 -13.03)"/><path class="cls-1" d="M183.9,191.79V197H172v6.8h9.15v5H172v6.94h12v5.2H165.15V191.79Z" transform="translate(-5.76 -13.03)"/><path class="cls-1" d="M207.66,197.71a2.54,2.54,0,0,1-.63.72,1.4,1.4,0,0,1-.85.24,2,2,0,0,1-1-.29l-1.2-.65a11,11,0,0,0-1.53-.65,6.22,6.22,0,0,0-2-.29,4.21,4.21,0,0,0-2.83.81,2.76,2.76,0,0,0-.93,2.19,2,2,0,0,0,.56,1.46,4.69,4.69,0,0,0,1.47,1,15.47,15.47,0,0,0,2.08.77c.78.23,1.58.49,2.39.78a21.64,21.64,0,0,1,2.39,1,8.11,8.11,0,0,1,2.08,1.48,6.8,6.8,0,0,1,1.47,2.19,7.86,7.86,0,0,1,.56,3.11,10.24,10.24,0,0,1-.7,3.78,8.85,8.85,0,0,1-2,3.07,9.5,9.5,0,0,1-3.28,2.06,12.28,12.28,0,0,1-4.43.75,14.71,14.71,0,0,1-2.77-.28,16.78,16.78,0,0,1-2.73-.79,15.41,15.41,0,0,1-2.48-1.21,11.15,11.15,0,0,1-2-1.56l2-3.16a1.75,1.75,0,0,1,1.48-.8,2.32,2.32,0,0,1,1.21.38l1.38.84a10.42,10.42,0,0,0,1.77.84,6.71,6.71,0,0,0,2.36.38,4.49,4.49,0,0,0,2.86-.81,3.09,3.09,0,0,0,1-2.57,2.45,2.45,0,0,0-.56-1.66,4.22,4.22,0,0,0-1.47-1.06,13.45,13.45,0,0,0-2.07-.74c-.77-.21-1.57-.45-2.38-.71a17.41,17.41,0,0,1-2.38-1,7.61,7.61,0,0,1-2.07-1.5,6.88,6.88,0,0,1-1.47-2.32,9.29,9.29,0,0,1-.56-3.43,8.15,8.15,0,0,1,.66-3.2,8.37,8.37,0,0,1,1.94-2.78,9.61,9.61,0,0,1,3.14-2,11.74,11.74,0,0,1,4.26-.73,16,16,0,0,1,2.61.21,13.49,13.49,0,0,1,4.54,1.6,9.82,9.82,0,0,1,1.77,1.29Z" transform="translate(-5.76 -13.03)"/></g></g></svg>