<svg xmlns="http://www.w3.org/2000/svg" viewBox="0 0 88 71.5"><defs><style>.cls-1{fill:#ffebee;}.cls-2,.cls-7{fill:none;}.cls-2,.cls-4,.cls-6,.cls-7,.cls-9{stroke:#e0003b;}.cls-2,.cls-4,.cls-6{stroke-linecap:round;}.cls-2,.cls-4,.cls-6,.cls-9{stroke-linejoin:round;}.cls-3,.cls-4,.cls-9{fill:#fff;}.cls-5,.cls-6{fill:#ffcdd2;}.cls-7{stroke-miterlimit:10;}.cls-8{fill:#e0003b;}</style></defs><title>pro-team</title><g id="Layer_2" data-name="Layer 2"><g id="Duotone"><g id="Icons"><g id="Background"><g id="New_Symbol_15" data-name="New Symbol 15"><path class="cls-1" d="M84,40A40,40,0,1,0,7.56,56.5H80.44A39.85,39.85,0,0,0,84,40Z"/><line class="cls-2" x1="5" y1="56.5" x2="83" y2="56.5"/><line class="cls-2" x1="0.5" y1="56.5" x2="3" y2="56.5"/><line class="cls-2" x1="85" y1="56.5" x2="87.5" y2="56.5"/></g></g><g id="Scene"><path class="cls-1" d="M57,70c0,.83-4.37,1.5-9.75,1.5S37.5,70.83,37.5,70s4.37-1.5,9.75-1.5S57,69.17,57,70Z"/><path class="cls-3" d="M41.5,51,43.4,68.6a1,1,0,0,0,1,.89h5.2a1,1,0,0,0,1-.89L52.5,51Z"/><path class="cls-1" d="M30.58,70c0,.83-4.36,1.5-9.75,1.5s-9.75-.67-9.75-1.5,4.37-1.5,9.75-1.5S30.58,69.17,30.58,70Z"/><path class="cls-3" d="M24.77,32.87a10.23,10.23,0,0,0-14.27,9.4V52H14V50.5H27.5V37.15a1.89,1.89,0,0,1,.81-1.69c3.82-2.42,5.73-6.1,7.2-10.08l-3.32-1.12A14.24,14.24,0,0,1,24.77,32.87Z"/><path class="cls-4" d="M10.5,52H14a0,0,0,0,1,0,0v1.75a1.75,1.75,0,0,1-1.75,1.75h0a1.75,1.75,0,0,1-1.75-1.75V52a0,0,0,0,1,0,0Z"/><path class="cls-2" d="M24.77,32.87a10.23,10.23,0,0,0-14.27,9.4V52H14V50.5H27.5V37.15a1.89,1.89,0,0,1,.81-1.69c3.82-2.42,5.73-6.1,7.2-10.08l-3.32-1.12A14.24,14.24,0,0,1,24.77,32.87Z"/><line class="cls-2" x1="14" y1="50.5" x2="14" y2="39.5"/><path class="cls-5" d="M14,50.5V68.74h4.92l.55-12.64a1.26,1.26,0,0,1,2.51,0l.55,12.64h5V50.5Z"/><path class="cls-2" d="M14,50.5V68.74h4.92l.55-12.64a1.26,1.26,0,0,1,2.51,0l.55,12.64h5V50.5Z"/><path class="cls-4" d="M13.35,68a1,1,0,0,0,0,1,1,1,0,0,0,.88.53h4.12a1,1,0,0,0,.88-1.46C18.1,65.94,14.6,66.06,13.35,68Z"/><path class="cls-4" d="M28.1,68a1,1,0,0,1,0,1,1,1,0,0,1-.88.53H23.15a1,1,0,0,1-.89-1.46C23.36,65.94,26.86,66.06,28.1,68Z"/><polygon class="cls-6" points="20.5 32.5 18.5 41.5 20.5 47.5 22.58 41.5 20.5 32.5"/><path class="cls-4" d="M20.73,32H20.5v.6L23,35.33a1,1,0,0,0,1.54,0L26,33.51c-.47-.22-.89-.44-1.27-.65A10.17,10.17,0,0,0,20.73,32Z"/><path class="cls-4" d="M18.49,35.33l2-2.69V32a10.13,10.13,0,0,0-5.06,1.47L17,35.33A1,1,0,0,0,18.49,35.33Z"/><line class="cls-2" x1="20.5" y1="47.46" x2="20.5" y2="50.47"/><path class="cls-1" d="M62.92,70c0,.83,4.36,1.5,9.75,1.5s9.75-.67,9.75-1.5-4.37-1.5-9.75-1.5S62.92,69.17,62.92,70Z"/><path class="cls-3" d="M68.73,32.87A10.23,10.23,0,0,1,83,42.27V52H79.5V50.5H66V37.15a1.89,1.89,0,0,0-.81-1.69C61.37,33,59.46,29.36,58,25.38l3.32-1.12A14.24,14.24,0,0,0,68.73,32.87Z"/><path class="cls-4" d="M81.25,52h0A1.75,1.75,0,0,1,83,53.75V55.5a0,0,0,0,1,0,0H79.5a0,0,0,0,1,0,0V53.75A1.75,1.75,0,0,1,81.25,52Z" transform="translate(162.5 107.5) rotate(180)"/><path class="cls-2" d="M68.73,32.87A10.23,10.23,0,0,1,83,42.27V52H79.5V50.5H66V37.15a1.89,1.89,0,0,0-.81-1.69C61.37,33,59.46,29.36,58,25.38l3.32-1.12A14.24,14.24,0,0,0,68.73,32.87Z"/><line class="cls-2" x1="79.5" y1="50.5" x2="79.5" y2="39.5"/><path class="cls-5" d="M79.5,50.5V68.74H74.58L74,56.1a1.26,1.26,0,0,0-2.51,0L71,68.74H66V50.5Z"/><path class="cls-2" d="M79.5,50.5V68.74H74.58L74,56.1a1.26,1.26,0,0,0-2.51,0L71,68.74H66V50.5Z"/><path class="cls-4" d="M80.15,68a1,1,0,0,1-.84,1.55H75.19a1,1,0,0,1-.88-1.46C75.4,65.94,78.9,66.06,80.15,68Z"/><path class="cls-4" d="M65.4,68a1,1,0,0,0-.05,1,1,1,0,0,0,.88.53h4.12a1,1,0,0,0,.89-1.46C70.14,65.94,66.64,66.06,65.4,68Z"/><polygon class="cls-6" points="73 32.5 75 41.5 73 47.5 70.92 41.5 73 32.5"/><path class="cls-4" d="M72.77,32H73v.6l-2.47,2.69a1,1,0,0,1-1.53,0l-1.52-1.82c.47-.22.89-.44,1.27-.65A10.17,10.17,0,0,1,72.77,32Z"/><path class="cls-4" d="M75,35.33l-2-2.69V32a10.13,10.13,0,0,1,5.06,1.47l-1.51,1.82A1,1,0,0,1,75,35.33Z"/><line class="cls-2" x1="73" y1="47.46" x2="73" y2="50.47"/><path class="cls-4" d="M79.39,24a1.23,1.23,0,0,0-1-1.2V22a6,6,0,0,0-12,0v.8a1.23,1.23,0,0,0-1,1.2,1.25,1.25,0,0,0,1.13,1.23,6,6,0,0,0,11.74,0A1.25,1.25,0,0,0,79.39,24Z"/><circle class="cls-5" cx="69.14" cy="24.75" r="0.75"/><circle class="cls-5" cx="75.64" cy="24.75" r="0.75"/><path class="cls-2" d="M70.89,26.55a2.72,2.72,0,0,0,3,0"/><path class="cls-3" d="M78.89,20.5a6.5,6.5,0,0,0-13,0v2a5.15,5.15,0,0,0,3.5-3C72.19,21.39,75.89,21,78.89,20.5Z"/><path class="cls-2" d="M78.89,20.5a6.5,6.5,0,0,0-13,0v2a5.15,5.15,0,0,0,3.5-3C72.19,21.39,75.89,21,78.89,20.5Z"/><path class="cls-2" d="M68.39,18.5a3.2,3.2,0,0,0,1,1"/><circle class="cls-7" cx="69.89" cy="22.5" r="2.5"/><circle class="cls-7" cx="74.89" cy="22.5" r="2.5"/><path class="cls-2" d="M69.33,22.75a.86.86,0,0,1,1.21,0"/><path class="cls-2" d="M74.15,22.75a.85.85,0,0,1,1.2,0"/><path class="cls-3" d="M55.6,30.44a14,14,0,0,1-3.49,2.63,2,2,0,0,1-1.69.09,9.32,9.32,0,0,0-6.84,0,2,2,0,0,1-1.69-.09,14,14,0,0,1-3.49-2.63l-2.59,2.08a23,23,0,0,0,4.54,4l.12,2a3,3,0,0,0,.45,1.64,3.09,3.09,0,0,1,.58,1.73V49.5h11V41.86a3.09,3.09,0,0,1,.58-1.73,3,3,0,0,0,.45-1.64l.12-2a23,23,0,0,0,4.54-4Z"/><path class="cls-3" d="M41.89,35.07a2,2,0,0,0,1.69.09,9.32,9.32,0,0,1,6.84,0,2,2,0,0,0,1.69-.09A34.52,34.52,0,0,0,57,31.52L55.6,30.44a14,14,0,0,1-3.49,2.63,2,2,0,0,1-1.69.09,9.32,9.32,0,0,0-6.84,0,2,2,0,0,1-1.69-.09,14,14,0,0,1-3.49-2.63l-1.35,1.08A34.52,34.52,0,0,0,41.89,35.07Z"/><path class="cls-2" d="M55.6,30.44a14,14,0,0,1-3.49,2.63,2,2,0,0,1-1.69.09,9.32,9.32,0,0,0-6.84,0,2,2,0,0,1-1.69-.09,14,14,0,0,1-3.49-2.63l-2.59,2.08a23,23,0,0,0,4.54,4l.12,2a3,3,0,0,0,.45,1.64,3.09,3.09,0,0,1,.58,1.73V49.5h11V41.86a3.09,3.09,0,0,1,.58-1.73,3,3,0,0,0,.45-1.64l.12-2a23,23,0,0,0,4.54-4Z"/><line class="cls-2" x1="47" y1="60" x2="47" y2="69.49"/><path class="cls-2" d="M41.5,51,43.4,68.6a1,1,0,0,0,1,.89h5.2a1,1,0,0,0,1-.89L52.5,51Z"/><path class="cls-4" d="M47,69.5a3,3,0,0,0-3-3h-.5a3,3,0,0,0-2.63,1.55,1,1,0,0,0,.9,1.45Z"/><path class="cls-4" d="M47,69.5a3,3,0,0,1,3-3h.5a3,3,0,0,1,2.63,1.55,1,1,0,0,1-.9,1.45Z"/><path class="cls-5" d="M41.5,51,42,59.06A1,1,0,0,0,43,60h8.11a1,1,0,0,0,1-1L52.5,51V49.5h-11Z"/><path class="cls-2" d="M41.5,51,42,59.06A1,1,0,0,0,43,60h8.11a1,1,0,0,0,1-1L52.5,51V49.5h-11Z"/><line class="cls-2" x1="47" y1="32.51" x2="47" y2="49.5"/><path class="cls-4" d="M46.27,34.66,47,32.51a10.19,10.19,0,0,0-3.07.52l.52,1.62a1,1,0,0,0,.91.66A1,1,0,0,0,46.27,34.66Z"/><path class="cls-4" d="M47.73,34.66,47,32.51a10.19,10.19,0,0,1,3.07.52l-.52,1.62a1,1,0,0,1-.91.66A1,1,0,0,1,47.73,34.66Z"/><path class="cls-2" d="M55.6,30.44a14,14,0,0,1-3.49,2.63,2,2,0,0,1-1.69.09,9.32,9.32,0,0,0-6.84,0,2,2,0,0,1-1.69-.09,14,14,0,0,1-3.49-2.63l-2.59,2.08a23,23,0,0,0,4.54,4l.12,2a3,3,0,0,0,.45,1.64,3.09,3.09,0,0,1,.58,1.73V49.5h11V41.86a3.09,3.09,0,0,1,.58-1.73,3,3,0,0,0,.45-1.64l.12-2a23,23,0,0,0,4.54-4Z"/><path class="cls-3" d="M53.93,20.25a1.5,1.5,0,0,0-.82-2.75,1.5,1.5,0,0,0-1.5-1.5,1.71,1.71,0,0,0-.51.09s0-.06,0-.09a1.5,1.5,0,0,0-2.6-1,1.5,1.5,0,0,0-2.81,0,1.49,1.49,0,0,0-2.59,1,.28.28,0,0,0,0,.09,1.71,1.71,0,0,0-.51-.09,1.5,1.5,0,0,0-1.5,1.5,1.5,1.5,0,0,0-.83,2.75A1.5,1.5,0,0,0,41.11,23h.08A6,6,0,0,0,53,23h.09a1.5,1.5,0,0,0,.82-2.75Z"/><path class="cls-2" d="M53.93,20.25a1.5,1.5,0,0,0-.82-2.75,1.5,1.5,0,0,0-1.5-1.5,1.71,1.71,0,0,0-.51.09s0-.06,0-.09a1.5,1.5,0,0,0-2.6-1,1.5,1.5,0,0,0-2.81,0,1.49,1.49,0,0,0-2.59,1,.28.28,0,0,0,0,.09,1.71,1.71,0,0,0-.51-.09,1.5,1.5,0,0,0-1.5,1.5,1.5,1.5,0,0,0-.83,2.75A1.5,1.5,0,0,0,41.11,23h.08A6,6,0,0,0,53,23h.09a1.5,1.5,0,0,0,.82-2.75Z"/><path class="cls-4" d="M53.11,23.3v-.8s0-.06,0-.09a1.58,1.58,0,0,1-.49.09,1.5,1.5,0,0,1-1.5-1.5,1.44,1.44,0,0,1,.09-.51h-.09a1.49,1.49,0,0,1-1.49-1.4,1.47,1.47,0,0,1-1,.4,1.53,1.53,0,0,1-.85-.26,1,1,0,0,1-.65.26,1,1,0,0,1-.66-.26,1.52,1.52,0,0,1-.84.26,1.46,1.46,0,0,1-1-.4,1.5,1.5,0,0,1-1.49,1.4H43a1.45,1.45,0,0,1,.1.51,1.5,1.5,0,0,1-1.5,1.5,1.64,1.64,0,0,1-.5-.09v.89a1.22,1.22,0,0,0,.12,2.42,6,6,0,0,0,11.75,0,1.22,1.22,0,0,0,.13-2.42Z"/><path class="cls-8" d="M44.86,22.5a.75.75,0,1,0,.75.75.75.75,0,0,0-.75-.75Z"/><path class="cls-8" d="M49.36,22.5a.75.75,0,1,0,.75.75.75.75,0,0,0-.75-.75Z"/><circle class="cls-5" cx="43.86" cy="25.25" r="0.75"/><circle class="cls-5" cx="50.36" cy="25.25" r="0.75"/><path class="cls-2" d="M45.61,27.05a2.72,2.72,0,0,0,3,0"/><path class="cls-4" d="M35.29,25.51,34.36,23a1.75,1.75,0,0,0-1.64-1.14,1.61,1.61,0,0,0-.61.11,1.74,1.74,0,0,0-1,2.24L32,26.72a16.45,16.45,0,0,0,3.8,5.8l2.59-2.08A14.06,14.06,0,0,1,35.29,25.51Z"/><path class="cls-4" d="M58.71,25.51,59.64,23a1.76,1.76,0,0,1,1.64-1.14,1.83,1.83,0,0,1,.61.11,1.76,1.76,0,0,1,1,2.25L62,26.72a16.48,16.48,0,0,1-3.81,5.8L55.6,30.44A14.06,14.06,0,0,0,58.71,25.51Z"/><path class="cls-4" d="M56.61,9.23A6.88,6.88,0,0,1,51,12.43L49,8.9a6.92,6.92,0,0,0,5.65-3.2Z"/><path class="cls-4" d="M63,66a5.57,5.57,0,0,1-4.58,2.59L56.8,65.77a5.58,5.58,0,0,0,4.58-2.6Z"/><path class="cls-4" d="M39.23,4.94a6.05,6.05,0,0,1-.7,5.66L35,10.16a6.08,6.08,0,0,0,.7-5.66Z"/><path class="cls-4" d="M27.73,15.8a6.63,6.63,0,0,1-1.31-6.08l3.8-.82A6.63,6.63,0,0,0,31.53,15Z"/><path class="cls-4" d="M57.2,45a6.63,6.63,0,0,1-1.31-6.08l3.8-.82A6.63,6.63,0,0,0,61,44.18Z"/><path class="cls-4" d="M21.66,49.69a5.81,5.81,0,0,1,3.28,4.37l-2.73,2a5.84,5.84,0,0,0-3.28-4.38Z"/><path class="cls-4" d="M67.17,48.76a5.26,5.26,0,0,1-4.91.46L62,46.14a5.2,5.2,0,0,0,4.91-.46Z"/><path class="cls-4" d="M57.41,53.26a5.77,5.77,0,0,1,3.35,4.27L58.1,59.62a5.76,5.76,0,0,0-3.36-4.26Z"/><path class="cls-4" d="M66.93,12.59a5.75,5.75,0,0,1-5.14-1.75l1.09-3.21A5.79,5.79,0,0,0,68,9.38Z"/><path class="cls-4" d="M36.8,62.57a6.23,6.23,0,0,1-5.55-1.89l1.18-3.47A6.22,6.22,0,0,0,38,59.09Z"/><path class="cls-4" d="M28.8,47.57a6.19,6.19,0,0,1,3.77-4.42l2.76,2.35a6.19,6.19,0,0,0-3.77,4.42Z"/><path class="cls-4" d="M60.86,24.2a1.75,1.75,0,0,1-.6,2.61A1.82,1.82,0,0,1,58,26.23l-.4-.54a1,1,0,0,1,.21-1.4L59,23.4a1,1,0,0,1,1.39.21Z"/><path class="cls-9" d="M33,23.42a1.74,1.74,0,0,0-.15,2.67,1.8,1.8,0,0,0,2.33.07l.53-.39a1,1,0,0,0,.19-1.41L35,23.17a1,1,0,0,0-1.4-.19Z"/><path class="cls-4" d="M27.5,24a1.23,1.23,0,0,0-1-1.2V22a6,6,0,0,0-12,0v.8a1.23,1.23,0,0,0-1,1.2,1.25,1.25,0,0,0,1.13,1.23,6,6,0,0,0,11.74,0A1.25,1.25,0,0,0,27.5,24Z"/><circle class="cls-5" cx="17.25" cy="24.75" r="0.75"/><circle class="cls-5" cx="23.75" cy="24.75" r="0.75"/><path class="cls-2" d="M19.5,26.76h0a2.2,2.2,0,0,0,2,0h0"/><path class="cls-3" d="M20.5,14A6.67,6.67,0,0,0,14,20.77v1.16a1,1,0,0,0,.76,1l.62.16h.12a.5.5,0,0,0,.5-.5v-2c0-.94.58-2.35,1.52-2.35a1.1,1.1,0,0,1,.57.16,4.92,4.92,0,0,0,4.82,0,1.1,1.1,0,0,1,.57-.16c.94,0,1.52,1.41,1.52,2.35v2a.5.5,0,0,0,.5.5h.12l.62-.16a1,1,0,0,0,.76-1V20.5A6.5,6.5,0,0,0,20.5,14Z"/><path class="cls-2" d="M20.5,14A6.67,6.67,0,0,0,14,20.77v1.16a1,1,0,0,0,.76,1l.62.16h.12a.5.5,0,0,0,.5-.5v-2c0-.94.58-2.35,1.52-2.35a1.1,1.1,0,0,1,.57.16,4.92,4.92,0,0,0,4.82,0,1.1,1.1,0,0,1,.57-.16c.94,0,1.52,1.41,1.52,2.35v2a.5.5,0,0,0,.5.5h.12l.62-.16a1,1,0,0,0,.76-1V20.5A6.5,6.5,0,0,0,20.5,14Z"/><path class="cls-2" d="M23.2,23A.85.85,0,0,0,22,23"/><path class="cls-2" d="M19,23a.85.85,0,0,0-1.2,0"/></g></g></g></g></svg>