<svg xmlns="http://www.w3.org/2000/svg" xmlns:xlink="http://www.w3.org/1999/xlink" viewBox="0 0 85 80"><defs><style>.cls-1,.cls-10,.cls-4,.cls-6{fill:none;}.cls-2{fill:#ffebee;}.cls-3,.cls-7,.cls-9{fill:#fff;}.cls-10,.cls-12,.cls-3,.cls-4,.cls-6,.cls-7,.cls-8{stroke:#e0003b;}.cls-3,.cls-4{stroke-miterlimit:10;}.cls-12,.cls-5,.cls-8{fill:#ffcdd2;}.cls-6,.cls-7,.cls-8{stroke-linecap:round;}.cls-10,.cls-12,.cls-6,.cls-7,.cls-8{stroke-linejoin:round;}.cls-11{clip-path:url(#clip-path);}</style><clipPath id="clip-path"><circle class="cls-1" cx="42.5" cy="40" r="40"/></clipPath></defs><title>s1</title><g id="Layer_2" data-name="Layer 2"><g id="Duotone"><g id="Icons"><g id="Background"><g id="New_Symbol_52" data-name="New Symbol 52"><circle class="cls-2" cx="42.5" cy="40" r="40"/></g></g><g id="Scene"><path class="cls-3" d="M43.88,43a2,2,0,0,0,0,4H53.5a2,2,0,0,0,0,4h1a2,2,0,0,0,0,4h1a2,2,0,0,0,0,4h6c5.15,0,6-2,9-2h4V45.49a3,3,0,0,1-2.41-1.19l-1-1.31Z"/><path class="cls-4" d="M43.88,43a2,2,0,0,0,0,4H53.5a2,2,0,0,0,0,4h1a2,2,0,0,0,0,4h1a2,2,0,0,0,0,4h6c5.15,0,6-2,9-2h4V45.49a3,3,0,0,1-2.41-1.19l-1-1.31Z"/><path class="cls-3" d="M61.12,49a2,2,0,0,1-2,2h-6.5a2,2,0,0,1,0-4h6.5A2,2,0,0,1,61.12,49Z"/><path class="cls-3" d="M62.12,53a2,2,0,0,1-2,2h-6.5a2,2,0,0,1,0-4h6.5A2,2,0,0,1,62.12,53Z"/><path class="cls-3" d="M60.62,57a2,2,0,0,1-2,2h-4a2,2,0,0,1,0-4h4A2,2,0,0,1,60.62,57Z"/><path class="cls-3" d="M41.1,43a2,2,0,0,1,0,4H31.47a2,2,0,1,1,0,4h-1a2,2,0,1,1,0,4h-1a2,2,0,1,1,0,4h-6c-5.15,0-6-2-9-2h-4V45.49a3,3,0,0,0,2.39-1.19l1-1.31Z"/><path class="cls-4" d="M41.1,43a2,2,0,0,1,0,4H31.47a2,2,0,1,1,0,4h-1a2,2,0,1,1,0,4h-1a2,2,0,1,1,0,4h-6c-5.15,0-6-2-9-2h-4V45.49a3,3,0,0,0,2.39-1.19l1-1.31Z"/><path class="cls-3" d="M23.85,49a2,2,0,0,0,2,2h6.5a2,2,0,0,0,0-4h-6.5A2,2,0,0,0,23.85,49Z"/><path class="cls-3" d="M22.85,53a2,2,0,0,0,2,2h6.5a2,2,0,0,0,0-4h-6.5A2,2,0,0,0,22.85,53Z"/><path class="cls-3" d="M24.35,57a2,2,0,0,0,2,2h4a2,2,0,0,0,0-4h-4A2,2,0,0,0,24.35,57Z"/><path class="cls-5" d="M60,31.52a3,3,0,0,0-3-3H27a3,3,0,0,0-3,3v14a3,3,0,0,0,3,3H57a3,3,0,0,0,3-3Z"/><path class="cls-6" d="M60,31.52a3,3,0,0,0-3-3H27a3,3,0,0,0-3,3v14a3,3,0,0,0,3,3H57a3,3,0,0,0,3-3Z"/><path class="cls-7" d="M56,42V35a3,3,0,0,1-3-3H31a3,3,0,0,1-3,3v7a3,3,0,0,1,3,3H53A3,3,0,0,1,56,42Z"/><path class="cls-8" d="M45,38.68a3,3,0,1,1-3-3A3,3,0,0,1,45,38.68Z"/><path class="cls-7" d="M22.49,22.56a2.38,2.38,0,0,1,1.8-1.8l3.61-.83a.31.31,0,0,0,.23-.3.29.29,0,0,0-.23-.29l-3.61-.83a2.41,2.41,0,0,1-1.8-1.8l-.83-3.61a.3.3,0,0,0-.3-.23.3.3,0,0,0-.29.23l-.83,3.61a2.41,2.41,0,0,1-1.8,1.8l-3.61.83a.3.3,0,0,0-.23.29.32.32,0,0,0,.23.3l3.61.83a2.38,2.38,0,0,1,1.8,1.8l.83,3.61a.3.3,0,0,0,.59,0Z"/><path class="cls-7" d="M67.39,21.89,70.22,21a.27.27,0,0,0,.18-.25.25.25,0,0,0-.18-.25l-2.32-.78a1,1,0,0,1-.67-.67l-.78-2.32a.26.26,0,0,0-.25-.18.27.27,0,0,0-.25.18L65.18,19a1.06,1.06,0,0,1-.68.67l-2.32.78a.25.25,0,0,0-.18.25.27.27,0,0,0,.18.25l2.32.77a1.09,1.09,0,0,1,.68.68L66,24.72a.26.26,0,0,0,.5,0Z"/><path class="cls-9" d="M27,43a2,2,0,1,0,0-4h-6.8A6.49,6.49,0,0,0,15,41.53L12.89,44.3a3,3,0,0,1-2.39,1.19v4H16a6.5,6.5,0,0,0,6.5-6.5H27"/><path class="cls-6" d="M14.47,49.49H16a6.5,6.5,0,0,0,6.5-6.5H27"/><path class="cls-10" d="M27,43a2,2,0,1,0,0-4h-6.8A6.49,6.49,0,0,0,15,41.53L12.89,44.3a3,3,0,0,1-2.39,1.19"/><path class="cls-9" d="M58,43a2,2,0,0,1,0-4h6.8A6.49,6.49,0,0,1,70,41.53l2.14,2.77a3,3,0,0,0,2.41,1.19v4H69A6.5,6.5,0,0,1,62.5,43H58"/><path class="cls-6" d="M70.5,49.49H69A6.5,6.5,0,0,1,62.5,43H58"/><path class="cls-10" d="M58,43a2,2,0,0,1,0-4h6.8A6.49,6.49,0,0,1,70,41.53l2.14,2.77a3,3,0,0,0,2.41,1.19"/><g class="cls-11"><rect class="cls-12" x="77.5" y="43.44" width="7" height="15.5" rx="1" ry="1" transform="translate(162 102.38) rotate(180)"/><rect class="cls-10" x="77.5" y="43.44" width="7" height="15.5" rx="1" ry="1" transform="translate(162 102.38) rotate(180)"/><path class="cls-7" d="M75.5,44.44h2a0,0,0,0,1,0,0v13.5a0,0,0,0,1,0,0h-2a1,1,0,0,1-1-1V45.44A1,1,0,0,1,75.5,44.44Z"/><rect class="cls-12" x="0.5" y="43.44" width="7" height="15.5" rx="1" ry="1"/><rect class="cls-10" x="0.5" y="43.44" width="7" height="15.5" rx="1" ry="1"/><path class="cls-7" d="M8.5,44.44h2a0,0,0,0,1,0,0v13.5a0,0,0,0,1,0,0h-2a1,1,0,0,1-1-1V45.44A1,1,0,0,1,8.5,44.44Z" transform="translate(18 102.38) rotate(180)"/></g></g></g></g></g></svg>