<svg xmlns="http://www.w3.org/2000/svg" viewBox="0 0 88 73.16"><defs><style>.cls-1{fill:#ffebee;}.cls-2,.cls-4,.cls-5{fill:none;}.cls-2,.cls-4,.cls-5,.cls-7,.cls-8,.cls-9{stroke:#e0003b;stroke-linejoin:round;}.cls-2,.cls-5,.cls-8,.cls-9{stroke-linecap:round;}.cls-3,.cls-7,.cls-8{fill:#fff;}.cls-5{stroke-width:1.5px;}.cls-6,.cls-9{fill:#ffcdd2;}.cls-10{fill:#e0003b;}</style></defs><title>s2</title><g id="Layer_2" data-name="Layer 2"><g id="Duotone"><g id="Icons"><g id="Background"><g id="New_Symbol_68" data-name="New Symbol 68"><path class="cls-1" d="M84,40A40,40,0,1,0,7.57,56.5H80.44A39.85,39.85,0,0,0,84,40Z"/><line class="cls-2" x1="5" y1="56.5" x2="83" y2="56.5"/><line class="cls-2" x1="0.5" y1="56.5" x2="3" y2="56.5"/><line class="cls-2" x1="85" y1="56.5" x2="87.5" y2="56.5"/></g></g><g id="Scene"><rect class="cls-3" x="44.41" y="18.76" width="31.29" height="30.08"/><rect class="cls-4" x="44.41" y="18.76" width="31.29" height="30.08"/><path class="cls-5" d="M69.08,40.42a3.61,3.61,0,1,1-3.61-3.61A3.61,3.61,0,0,1,69.08,40.42Z"/><path class="cls-5" d="M55.24,44A17.46,17.46,0,0,1,67.88,27.25"/><polyline class="cls-5" points="63.66 25.44 67.88 27.25 65.47 31.46"/><line class="cls-5" x1="51.63" y1="22.97" x2="57.65" y2="28.98"/><line class="cls-5" x1="57.65" y1="22.97" x2="51.63" y2="28.98"/><path class="cls-6" d="M76.3,16.35H43.81a1.21,1.21,0,0,0-1.21,1.2h0a1.21,1.21,0,0,0,1.21,1.21H76.3a1.21,1.21,0,0,0,1.2-1.21h0A1.2,1.2,0,0,0,76.3,16.35Z"/><path class="cls-2" d="M76.3,16.35H43.81a1.21,1.21,0,0,0-1.21,1.2h0a1.21,1.21,0,0,0,1.21,1.21H76.3a1.21,1.21,0,0,0,1.2-1.21h0A1.2,1.2,0,0,0,76.3,16.35Z"/><path class="cls-6" d="M76.3,48.84H43.81A1.21,1.21,0,0,0,42.6,50h0a1.21,1.21,0,0,0,1.21,1.21H76.3A1.21,1.21,0,0,0,77.5,50h0A1.2,1.2,0,0,0,76.3,48.84Z"/><path class="cls-2" d="M76.3,48.84H43.81A1.21,1.21,0,0,0,42.6,50h0a1.21,1.21,0,0,0,1.21,1.21H76.3A1.21,1.21,0,0,0,77.5,50h0A1.2,1.2,0,0,0,76.3,48.84Z"/><polyline class="cls-2" points="53.44 16.35 60.05 10.93 66.67 16.35"/><path class="cls-6" d="M61.86,10.93a1.81,1.81,0,1,1-1.81-1.8A1.81,1.81,0,0,1,61.86,10.93Z"/><path class="cls-2" d="M61.86,10.93a1.81,1.81,0,1,1-1.81-1.8A1.81,1.81,0,0,1,61.86,10.93Z"/><ellipse class="cls-1" cx="30.21" cy="71.44" rx="11.5" ry="1.73"/><path class="cls-6" d="M30.75,48h-8.3V70.17H28l.64-14.53a1.44,1.44,0,0,1,2.88,0l.64,14.53h5.53V48Z"/><path class="cls-2" d="M30.75,48h-8.3V70.17H28l.64-14.53a1.44,1.44,0,0,1,2.88,0l.64,14.53h5.53V48Z"/><path class="cls-7" d="M51.25,41a2.08,2.08,0,0,0-2.94,0c-.64.64-1.12,1.18-1.55,1.61l2.92,2.92c.5-.5,1-1,1.57-1.6A2.07,2.07,0,0,0,51.25,41Z"/><path class="cls-8" d="M21.58,69.08a1.16,1.16,0,0,0,0,1.18,1.15,1.15,0,0,0,1,.6h4.73a1.15,1.15,0,0,0,1-1.68C27,66.76,23,66.89,21.58,69.08Z"/><path class="cls-8" d="M38.54,69.08a1.16,1.16,0,0,1,.05,1.18,1.15,1.15,0,0,1-1,.6H32.85a1.15,1.15,0,0,1-1-1.68C33.08,66.76,37.11,66.89,38.54,69.08Z"/><path class="cls-8" d="M22.45,53.56a2.08,2.08,0,1,1-4.15,0V50.8h4.15Z"/><line class="cls-2" x1="49.87" y1="42.49" x2="62.58" y2="32.32"/><path class="cls-6" d="M46.51,42.38l-.24.26c-.81.84-1.29,1.21-2,1.21a1.68,1.68,0,0,1-1.73-1.7V40.42a12.46,12.46,0,1,0-24.91,0v9.23a1.16,1.16,0,0,0,1.15,1.15h3.7V56h3.73a4.67,4.67,0,0,0,3.88-2.08A4.65,4.65,0,0,0,33.94,56h3.73V42.49l0,0a6.56,6.56,0,0,0,6.53,6.21c2.57,0,4-1.27,5.44-2.68l.24-.25Z"/><path class="cls-2" d="M46.51,42.38l-.24.26c-.81.84-1.29,1.21-2,1.21a1.68,1.68,0,0,1-1.73-1.7V40.42a12.46,12.46,0,1,0-24.91,0v9.23a1.16,1.16,0,0,0,1.15,1.15h3.7V56h3.73a4.67,4.67,0,0,0,3.88-2.08A4.65,4.65,0,0,0,33.94,56h3.73V42.49l0,0a6.56,6.56,0,0,0,6.53,6.21c2.57,0,4-1.27,5.44-2.68l.24-.25Z"/><line class="cls-2" x1="37.67" y1="42.49" x2="37.67" y2="39.03"/><line class="cls-2" x1="22.45" y1="50.8" x2="22.45" y2="39.03"/><path class="cls-8" d="M30.06,46,35,29a12.44,12.44,0,0,0-9.82,0Z"/><path class="cls-9" d="M30.06,46,25.15,29a12.45,12.45,0,0,0-3.9,2.64l3.27,3.27v3.46Z"/><path class="cls-9" d="M30.06,46,35,29a12.45,12.45,0,0,1,3.9,2.64l-3.28,3.27v3.46Z"/><polygon class="cls-9" points="30.06 27.96 28 38.84 30.06 45.95 32.12 38.84 30.06 27.96"/><line class="cls-2" x1="30.06" y1="53.91" x2="30.06" y2="45.95"/><polyline class="cls-2" points="33.76 33.15 30.06 27.96 26.36 33.15"/><path class="cls-8" d="M38.26,18.35A1.42,1.42,0,0,0,37.11,17v-.92a6.9,6.9,0,1,0-13.8,0V17a1.42,1.42,0,0,0-1.15,1.38,1.44,1.44,0,0,0,1.3,1.41,6.9,6.9,0,0,0,13.51,0A1.43,1.43,0,0,0,38.26,18.35Z"/><path class="cls-2" d="M38.26,18.35A1.42,1.42,0,0,0,37.11,17v-.92a6.9,6.9,0,1,0-13.8,0V17a1.42,1.42,0,0,0-1.15,1.38,1.44,1.44,0,0,0,1.3,1.41,6.9,6.9,0,0,0,13.51,0A1.43,1.43,0,0,0,38.26,18.35Z"/><path class="cls-10" d="M27.63,16.05a.87.87,0,1,0,.86.86.87.87,0,0,0-.86-.86Z"/><path class="cls-10" d="M32.8,16.05a.87.87,0,1,0,.86.86.87.87,0,0,0-.86-.86Z"/><circle class="cls-6" cx="26.48" cy="19.21" r="0.86"/><circle class="cls-6" cx="33.95" cy="19.21" r="0.86"/><path class="cls-2" d="M28.49,21.28a3.13,3.13,0,0,0,3.45,0"/><path class="cls-8" d="M24.66,12.58a3.42,3.42,0,0,1-1.92-.86v4.33a.58.58,0,0,0,.57.58h.19a.57.57,0,0,0,.53-.37l1.1-2.73A4,4,0,0,1,24.66,12.58Z"/><path class="cls-3" d="M37.69,11.45a4.6,4.6,0,0,0-4.6-4.6H27.91A1.15,1.15,0,0,1,26.76,5.7H25a3.45,3.45,0,0,0-.38,6.88,3.15,3.15,0,0,0,2.68,2.32h1.54a.12.12,0,0,0,.11-.09.12.12,0,0,0-.07-.13,2.48,2.48,0,0,1-1.5-2.08h5.67l3.28,3.28a.57.57,0,0,0,.41.17h.33a.58.58,0,0,0,.58-.57Z"/><path class="cls-2" d="M37.69,11.45a4.6,4.6,0,0,0-4.6-4.6H27.91A1.15,1.15,0,0,1,26.76,5.7H25a3.45,3.45,0,0,0-.38,6.88,3.15,3.15,0,0,0,2.68,2.32h1.54a.12.12,0,0,0,.11-.09.12.12,0,0,0-.07-.13,2.48,2.48,0,0,1-1.5-2.08h5.67l3.28,3.28a.57.57,0,0,0,.41.17h.33a.58.58,0,0,0,.58-.57Z"/></g></g></g></g></svg>