<svg xmlns="http://www.w3.org/2000/svg" xmlns:xlink="http://www.w3.org/1999/xlink" viewBox="0 0 80 89"><defs><style>.cls-1,.cls-4{fill:none;}.cls-2{fill:#ffebee;}.cls-3,.cls-7{fill:#fff;}.cls-3,.cls-4,.cls-8{stroke:#e0003b;stroke-linecap:round;stroke-linejoin:round;}.cls-5{fill:#e0003b;}.cls-6,.cls-8{fill:#ffcdd2;}.cls-9{clip-path:url(#clip-path);}</style><clipPath id="clip-path"><circle class="cls-1" cx="40" cy="40" r="40"/></clipPath></defs><title>s3_2</title><g id="Layer_2" data-name="Layer 2"><g id="Duotone"><g id="Icons"><g id="Background"><circle class="cls-2" cx="40" cy="40" r="40"/></g><g id="Scene"><path class="cls-3" d="M26.5,41.5a1.23,1.23,0,0,0-1-1.2v-.8a6,6,0,0,0-12,0v.8a1.23,1.23,0,0,0-1,1.2,1.25,1.25,0,0,0,1.13,1.23,6,6,0,0,0,11.74,0A1.25,1.25,0,0,0,26.5,41.5Z"/><path class="cls-4" d="M26.5,41.5a1.23,1.23,0,0,0-1-1.2v-.8a6,6,0,0,0-12,0v.8a1.23,1.23,0,0,0-1,1.2,1.25,1.25,0,0,0,1.13,1.23,6,6,0,0,0,11.74,0A1.25,1.25,0,0,0,26.5,41.5Z"/><path class="cls-5" d="M17.25,39.5a.75.75,0,1,0,.75.75.76.76,0,0,0-.75-.75Z"/><path class="cls-5" d="M21.75,39.5a.75.75,0,1,0,.75.75.76.76,0,0,0-.75-.75Z"/><circle class="cls-6" cx="16.25" cy="42.25" r="0.75"/><circle class="cls-6" cx="22.75" cy="42.25" r="0.75"/><path class="cls-4" d="M18,44.05a2.73,2.73,0,0,0,3,0"/><path class="cls-7" d="M21.19,31.5H15.07a1,1,0,0,0-.62,1.78l.51.41a3,3,0,0,0-2,2.81V40h.5c1.14-.68,3-2.42,3-3.68a1.77,1.77,0,0,1,1.66,1.19.54.54,0,0,0,.72.38c1.05-.43,1.7-1,1.76-1.58,3.09.77,1.75,3.61,5.36,3.61V36.31A4.82,4.82,0,0,0,21.19,31.5Z"/><path class="cls-4" d="M21.19,31.5H15.07a1,1,0,0,0-.62,1.78l.51.41a3,3,0,0,0-2,2.81V40h.5c1.14-.68,3-2.42,3-3.68a1.77,1.77,0,0,1,1.66,1.19.54.54,0,0,0,.72.38c1.05-.43,1.7-1,1.76-1.58,3.09.77,1.75,3.61,5.36,3.61V36.31A4.82,4.82,0,0,0,21.19,31.5Z"/><path class="cls-3" d="M67.5,41.5a1.23,1.23,0,0,0-1-1.2v-.8a6,6,0,0,0-12,0v.8a1.23,1.23,0,0,0-1,1.2,1.25,1.25,0,0,0,1.13,1.23,6,6,0,0,0,11.74,0A1.25,1.25,0,0,0,67.5,41.5Z"/><path class="cls-4" d="M67.5,41.5a1.23,1.23,0,0,0-1-1.2v-.8a6,6,0,0,0-12,0v.8a1.23,1.23,0,0,0-1,1.2,1.25,1.25,0,0,0,1.13,1.23,6,6,0,0,0,11.74,0A1.25,1.25,0,0,0,67.5,41.5Z"/><path class="cls-5" d="M58.25,39.5a.75.75,0,1,0,.75.75.76.76,0,0,0-.75-.75Z"/><path class="cls-5" d="M62.75,39.5a.75.75,0,1,0,.75.75.76.76,0,0,0-.75-.75Z"/><circle class="cls-6" cx="57.25" cy="42.25" r="0.75"/><circle class="cls-6" cx="63.75" cy="42.25" r="0.75"/><path class="cls-4" d="M59,44.05a2.72,2.72,0,0,0,3,0"/><path class="cls-7" d="M62.19,31.5H56.07a1,1,0,0,0-.62,1.78l.51.41a3,3,0,0,0-2,2.81V40h.5c1.14-.68,3-2.42,3-3.68a1.77,1.77,0,0,1,1.66,1.19.54.54,0,0,0,.72.38c1-.43,1.7-1,1.76-1.58,3.09.77,1.75,3.61,5.36,3.61V36.31A4.82,4.82,0,0,0,62.19,31.5Z"/><path class="cls-4" d="M62.19,31.5H56.07a1,1,0,0,0-.62,1.78l.51.41a3,3,0,0,0-2,2.81V40h.5c1.14-.68,3-2.42,3-3.68a1.77,1.77,0,0,1,1.66,1.19.54.54,0,0,0,.72.38c1-.43,1.7-1,1.76-1.58,3.09.77,1.75,3.61,5.36,3.61V36.31A4.82,4.82,0,0,0,62.19,31.5Z"/><path class="cls-3" d="M49.5,30.83A1.17,1.17,0,0,1,48.33,32H33.17A1.17,1.17,0,0,1,32,30.83V12.17A1.17,1.17,0,0,1,33.17,11H44l5.5,5.5Z"/><polygon class="cls-8" points="44 11 44 16.5 49.5 16.5 44 11"/><line class="cls-4" x1="35" y1="17" x2="41" y2="17"/><line class="cls-4" x1="35" y1="20.5" x2="46.5" y2="20.5"/><line class="cls-4" x1="35" y1="24" x2="46.5" y2="24"/><line class="cls-4" x1="35" y1="27.5" x2="46.5" y2="27.5"/><g class="cls-9"><path class="cls-8" d="M65,83.5h.5a3,3,0,0,1,1.5.4V68H54V83.9a3,3,0,0,1,1.5-.4H56a3,3,0,0,1,2.55,1.42l.35-10.87a1.6,1.6,0,0,1,3.2,0l.35,10.87A3,3,0,0,1,65,83.5Z"/><path class="cls-4" d="M65,83.5h.5a3,3,0,0,1,1.5.4V68H54V83.9a3,3,0,0,1,1.5-.4H56a3,3,0,0,1,2.55,1.42l.35-10.87a1.6,1.6,0,0,1,3.2,0l.35,10.87A3,3,0,0,1,65,83.5Z"/><path class="cls-8" d="M60.5,49.5A10.5,10.5,0,0,0,50,60v1.5a5,5,0,0,0,4,4.9V74h3.26a3.61,3.61,0,0,0,3.24-2,3.61,3.61,0,0,0,3.23,2H67V66.4a5,5,0,0,0,4-4.9V60A10.5,10.5,0,0,0,60.5,49.5Z"/><path class="cls-4" d="M60.5,49.5A10.5,10.5,0,0,0,50,60v1.5a5,5,0,0,0,4,4.9V74h3.26a3.61,3.61,0,0,0,3.24-2,3.61,3.61,0,0,0,3.23,2H67V66.4a5,5,0,0,0,4-4.9V60A10.5,10.5,0,0,0,60.5,49.5Z"/><path class="cls-3" d="M60.5,62l4.16-11.64a10.49,10.49,0,0,0-8.32,0Z"/><polyline class="cls-4" points="63.62 53.27 60.5 49.5 57.38 53.27"/><ellipse class="cls-6" cx="60.5" cy="87.5" rx="9.75" ry="1.5"/><path class="cls-3" d="M67.23,86.5a1,1,0,0,0,.87-.5,1,1,0,0,0,0-1,3,3,0,0,0-2.6-1.5H65A3,3,0,0,0,62.4,85a1,1,0,0,0,0,1,1,1,0,0,0,.87.5Z"/><path class="cls-3" d="M57.73,86.5a1,1,0,0,0,.87-.5,1,1,0,0,0,0-1A3,3,0,0,0,56,83.5h-.5A3,3,0,0,0,52.9,85a1,1,0,0,0,0,1,1,1,0,0,0,.87.5Z"/><polygon class="cls-8" points="60.5 49.5 58.79 57.21 60.5 62 62.21 57.21 60.5 49.5"/><line class="cls-4" x1="60.5" y1="66.5" x2="60.5" y2="72"/><line class="cls-4" x1="60.5" y1="62" x2="60.5" y2="62.5"/><path class="cls-8" d="M60.5,62,66,55.5l-1-2h2l-.59-2.18a10.62,10.62,0,0,0-1.75-1Z"/><path class="cls-8" d="M60.5,62,56.34,50.36a10.62,10.62,0,0,0-1.75,1L54,53.5h2l-1,2Z"/><path class="cls-4" d="M58.5,66.5H55a4.71,4.71,0,0,1-1-.1"/><path class="cls-4" d="M54,57.5v4a1,1,0,0,0,1,1h3.5"/><path class="cls-3" d="M66,62.5a1,1,0,0,0,.86-.49,1.64,1.64,0,0,0-.28-1,1.75,1.75,0,0,0-2.42-.52L62,62.5Z"/><path class="cls-4" d="M67,57.5v4a1,1,0,0,1-1,1H58.5a2,2,0,0,0,0,4H66a4.71,4.71,0,0,0,1-.1"/><path class="cls-3" d="M56.25,62.75a1.75,1.75,0,0,0,0,3.5H58v-3.5Z"/><path class="cls-6" d="M24,83h.5a3,3,0,0,1,1.5.4V67.5H13V83.4a3,3,0,0,1,1.5-.4H15a3,3,0,0,1,2.55,1.42l.35-10.87a1.6,1.6,0,0,1,3.2,0l.35,10.87A3,3,0,0,1,24,83Z"/><path class="cls-4" d="M24,83h.5a3,3,0,0,1,1.5.4V67.5H13V83.4a3,3,0,0,1,1.5-.4H15a3,3,0,0,1,2.55,1.42l.35-10.87a1.6,1.6,0,0,1,3.2,0l.35,10.87A3,3,0,0,1,24,83Z"/><path class="cls-6" d="M19.5,49.5A10.5,10.5,0,0,0,9,60v1.5a5,5,0,0,0,4,4.9V74h3.26a3.61,3.61,0,0,0,3.24-2,3.61,3.61,0,0,0,3.23,2H26V66.4a5,5,0,0,0,4-4.9V60A10.5,10.5,0,0,0,19.5,49.5Z"/><path class="cls-4" d="M19.5,49.5A10.5,10.5,0,0,0,9,60v1.5a5,5,0,0,0,4,4.9V74h3.26a3.61,3.61,0,0,0,3.24-2,3.61,3.61,0,0,0,3.23,2H26V66.4a5,5,0,0,0,4-4.9V60A10.5,10.5,0,0,0,19.5,49.5Z"/><path class="cls-3" d="M19.5,62l4.16-11.64a10.49,10.49,0,0,0-8.32,0Z"/><polyline class="cls-4" points="22.62 53.27 19.5 49.5 16.38 53.27"/><ellipse class="cls-6" cx="19.5" cy="87.5" rx="9.75" ry="1.5"/><path class="cls-3" d="M26.23,86.5a1,1,0,0,0,.87-.5,1,1,0,0,0,0-1,3,3,0,0,0-2.6-1.5H24A3,3,0,0,0,21.4,85a1,1,0,0,0,0,1,1,1,0,0,0,.87.5Z"/><path class="cls-3" d="M16.73,86.5a1,1,0,0,0,.87-.5,1,1,0,0,0,0-1A3,3,0,0,0,15,83.5h-.5A3,3,0,0,0,11.9,85a1,1,0,0,0,0,1,1,1,0,0,0,.87.5Z"/><polygon class="cls-8" points="19.5 49.5 17.79 57.21 19.5 62 21.21 57.21 19.5 49.5"/><line class="cls-4" x1="19.5" y1="66.5" x2="19.5" y2="72.01"/><line class="cls-4" x1="19.5" y1="62" x2="19.5" y2="62.5"/><path class="cls-8" d="M19.5,62,25,55.5l-1-2h2l-.59-2.18a10.62,10.62,0,0,0-1.75-1Z"/><path class="cls-8" d="M19.5,62,15.34,50.36a10.62,10.62,0,0,0-1.75,1L13,53.5h2l-1,2Z"/><path class="cls-4" d="M17.5,66.5H14a4.71,4.71,0,0,1-1-.1"/><path class="cls-4" d="M13,57.5v4a1,1,0,0,0,1,1h3.5"/><path class="cls-3" d="M25,62.5a1,1,0,0,0,.86-.49,1.64,1.64,0,0,0-.28-1,1.75,1.75,0,0,0-2.42-.52L21,62.5Z"/><path class="cls-4" d="M26,57.5v4a1,1,0,0,1-1,1H17.5a2,2,0,0,0,0,4H25a4.71,4.71,0,0,0,1-.1"/><path class="cls-3" d="M15.25,62.75a1.75,1.75,0,0,0,0,3.5H17v-3.5Z"/></g><path class="cls-8" d="M50.35,48.25a.31.31,0,0,1,0,.5L46,51.84a.31.31,0,0,1-.31,0,.29.29,0,0,1-.17-.27V45.41a.29.29,0,0,1,.17-.27.31.31,0,0,1,.31,0Z"/><line class="cls-3" x1="34" y1="48.5" x2="45.5" y2="48.5"/><path class="cls-8" d="M29.15,40.75a.31.31,0,0,1,0-.5l4.37-3.09a.33.33,0,0,1,.32,0,.3.3,0,0,1,.16.27v6.18a.3.3,0,0,1-.16.27.33.33,0,0,1-.32,0Z"/><line class="cls-3" x1="34" y1="40.5" x2="45.5" y2="40.5"/></g></g></g></g></svg>