<svg xmlns="http://www.w3.org/2000/svg" xmlns:xlink="http://www.w3.org/1999/xlink" viewBox="0 0 88 97.5"><defs><style>.cls-1,.cls-3{fill:none;}.cls-2{fill:#ffebee;}.cls-3,.cls-6,.cls-7{stroke:#e0003b;stroke-linecap:round;stroke-linejoin:round;}.cls-4{clip-path:url(#clip-path);}.cls-5,.cls-6{fill:#fff;}.cls-7,.cls-8{fill:#ffcdd2;}</style><clipPath id="clip-path"><circle class="cls-1" cx="44" cy="52.5" r="40"/></clipPath></defs><title>winner</title><g id="Layer_2" data-name="Layer 2"><g id="Duotone"><g id="Icons"><g id="Background"><g id="New_Symbol_14" data-name="New Symbol 14"><path class="cls-2" d="M84,52.5A40,40,0,1,0,7.56,69H80.44A39.85,39.85,0,0,0,84,52.5Z"/><line class="cls-3" x1="5" y1="69" x2="83" y2="69"/><line class="cls-3" x1="0.5" y1="69" x2="3" y2="69"/><line class="cls-3" x1="85" y1="69" x2="87.5" y2="69"/></g></g><g id="Scene"><g class="cls-4"><path class="cls-5" d="M50,68a6,6,0,0,0,6-6V50A12,12,0,0,0,43.2,38,12.26,12.26,0,0,0,32,50.41V62a6,6,0,0,0,6,6Z"/><path class="cls-3" d="M50,68a6,6,0,0,0,6-6V50A12,12,0,0,0,43.2,38,12.26,12.26,0,0,0,32,50.41V62a6,6,0,0,0,6,6Z"/><path class="cls-6" d="M36.86,39.86a3,3,0,1,0-4.72-3.72L30.29,38.5,35,42.21Z"/><path class="cls-6" d="M51.14,39.86a3,3,0,1,1,4.72-3.72l1.85,2.36L53,42.21Z"/><path class="cls-7" d="M53.5,97V76.11a1,1,0,0,1,.55-.89c22.07-11.28,6.19-33.63,3.75-36.83a.5.5,0,0,0-.69-.11l-4.72,3.44a.48.48,0,0,0-.13.67C54.33,45.56,67.48,67,44,67S33.67,45.56,35.74,42.39a.48.48,0,0,0-.13-.67l-4.72-3.44a.5.5,0,0,0-.69.11C27.76,41.59,11.88,63.94,34,75.22a1,1,0,0,1,.55.89V97Z"/><line class="cls-3" x1="44" y1="73" x2="44" y2="97"/><path class="cls-7" d="M50.46,67.87A4,4,0,0,0,47,66H41a4,4,0,0,0-3.45,1.87,3.81,3.81,0,0,0-.31,3.26l1.36,3.73a1,1,0,0,0,1.45.52L44,73l4,2.38a1,1,0,0,0,1.45-.52l1.36-3.73A3.81,3.81,0,0,0,50.46,67.87Z"/><polygon class="cls-5" points="47.5 69.5 44 73 40.5 69.5 40.5 64 47.5 64 47.5 69.5"/><polygon class="cls-3" points="47.5 69.5 44 73 40.5 69.5 40.5 64 47.5 64 47.5 69.5"/><path class="cls-6" d="M54,53.5V51c0-.23,0-.46,0-.69a11,11,0,0,1-13.54-2.93A5.44,5.44,0,0,1,34,51.9v1.6a2,2,0,0,0,0,4h.12a10,10,0,0,0,19.76,0H54a2,2,0,0,0,0-4Z"/><path class="cls-3" d="M41,60.3a4.38,4.38,0,0,0,6,0"/><path class="cls-3" d="M49.5,54.5a1.63,1.63,0,0,0-3,0"/><path class="cls-3" d="M41.51,54.5a1.63,1.63,0,0,0-3,0"/><circle class="cls-8" cx="38.25" cy="57.75" r="1.25"/><circle class="cls-8" cx="49.75" cy="57.75" r="1.25"/></g><path class="cls-6" d="M64.7,28.09a6,6,0,0,1-5,2.8L58,27.8A6,6,0,0,0,62.94,25Z"/><path class="cls-6" d="M74,32.4a6,6,0,0,1-2.5,5.1l-3.19-1.57a6,6,0,0,0,2.5-5.1Z"/><path class="cls-6" d="M20.69,78.07a6.05,6.05,0,0,1-2.5,5.1L15,81.6a6,6,0,0,0,2.51-5.1Z"/><path class="cls-6" d="M23.53,35.3a6,6,0,0,1-1.2-5.55L25.81,29A6.05,6.05,0,0,0,27,34.56Z"/><path class="cls-6" d="M15.09,57.82a6.05,6.05,0,0,1,3.41,4.55L15.66,64.5A6.07,6.07,0,0,0,12.25,60Z"/><path class="cls-6" d="M78,63.54a6.06,6.06,0,0,1-5.66.53L72,60.53A6,6,0,0,0,77.67,60Z"/><path class="cls-6" d="M68.29,75.6a6,6,0,0,1,3.52,4.46L69,82.26A6,6,0,0,0,65.5,77.8Z"/><path class="cls-6" d="M73.67,51.19a6,6,0,0,1-5.39-1.83L69.43,46a6,6,0,0,0,5.38,1.83Z"/><path class="cls-6" d="M9.5,49.15a6.05,6.05,0,0,1,3.69-4.33l2.7,2.3a6.07,6.07,0,0,0-3.69,4.33Z"/><path class="cls-6" d="M50.5,28a3,3,0,0,0-3-3h-7a3,3,0,0,0-3,3Z"/><path class="cls-5" d="M33,5c3,0,3.5,10,3.5,10a7.5,7.5,0,0,0,15,0S52,5,55,5Z"/><path class="cls-3" d="M33,5c3,0,3.5,10,3.5,10a7.5,7.5,0,0,0,15,0S52,5,55,5Z"/><path class="cls-7" d="M52.32,37H35.68a1,1,0,0,1-1-1.16l1.17-7a1,1,0,0,1,1-.84h14.3a1,1,0,0,1,1,.84l1.17,7A1,1,0,0,1,52.32,37Z"/><rect class="cls-6" x="38.5" y="31" width="11" height="3" rx="1" ry="1"/><path class="cls-7" d="M46.5,25a1.5,1.5,0,0,0,0-3h-5a1.5,1.5,0,0,0,0,3Z"/><path class="cls-6" d="M33,18.5a3,3,0,0,1-3-3,1,1,0,0,1,2,0,1,1,0,0,0,1,1A1.5,1.5,0,0,0,34.5,15c0-1.39-1.15-1.93-3.78-2.84C27.88,11.18,24,9.84,24,5a4.5,4.5,0,0,1,9,0,3,3,0,0,1-3,3,1,1,0,0,1,0-2,1,1,0,0,0,1-1,2.5,2.5,0,0,0-5,0c0,3.42,2.61,4.32,5.37,5.27C33.77,11.1,36.5,12,36.5,15A3.5,3.5,0,0,1,33,18.5Z"/><path class="cls-6" d="M55,18.5a3,3,0,0,0,3-3,1,1,0,0,0-2,0,1,1,0,0,1-1,1A1.5,1.5,0,0,1,53.5,15c0-1.39,1.15-1.93,3.78-2.84C60.12,11.18,64,9.84,64,5a4.5,4.5,0,0,0-9,0,3,3,0,0,0,3,3,1,1,0,0,0,0-2,1,1,0,0,1-1-1,2.5,2.5,0,0,1,5,0c0,3.42-2.61,4.32-5.37,5.27C54.23,11.1,51.5,12,51.5,15A3.5,3.5,0,0,0,55,18.5Z"/></g></g></g></g></svg>